<?xml version="1.0" encoding="UTF-8" standalone="no"?>
<!-- Created with Inkscape (http://www.inkscape.org/) -->

<svg
   xmlns:dc="http://purl.org/dc/elements/1.1/"
   xmlns:cc="http://creativecommons.org/ns#"
   xmlns:rdf="http://www.w3.org/1999/02/22-rdf-syntax-ns#"
   xmlns:svg="http://www.w3.org/2000/svg"
   xmlns="http://www.w3.org/2000/svg"
   xmlns:sodipodi="http://sodipodi.sourceforge.net/DTD/sodipodi-0.dtd"
   xmlns:inkscape="http://www.inkscape.org/namespaces/inkscape"
   width="110"
   height="40"
   viewBox="0 0 29.104177 10.583333"
   version="1.1"
   id="svg8"
   inkscape:version="0.92pre1 r"
   sodipodi:docname="logo.svg">
  <defs
     id="defs2" />
  <sodipodi:namedview
     id="base"
     pagecolor="#242424"
     bordercolor="#666666"
     borderopacity="1.0"
     inkscape:pageopacity="0"
     inkscape:pageshadow="2"
     inkscape:zoom="11.313708"
     inkscape:cx="59.57367"
     inkscape:cy="10.405153"
     inkscape:document-units="mm"
     inkscape:current-layer="text4233"
     showgrid="false"
     units="px"
     inkscape:window-width="2560"
     inkscape:window-height="1376"
     inkscape:window-x="1920"
     inkscape:window-y="27"
     inkscape:window-maximized="1"
     fit-margin-top="0"
     fit-margin-left="0"
     fit-margin-right="0"
     fit-margin-bottom="0" />
  <metadata
     id="metadata5">
    <rdf:RDF>
      <cc:Work
         rdf:about="">
        <dc:format>image/svg+xml</dc:format>
        <dc:type
           rdf:resource="http://purl.org/dc/dcmitype/StillImage" />
        <dc:title></dc:title>
      </cc:Work>
    </rdf:RDF>
  </metadata>
  <g
     inkscape:label="Layer 1"
     inkscape:groupmode="layer"
     id="layer1"
     transform="translate(-7.3906987,-283.73396)">
    <g
       id="g4306"
       transform="matrix(0.65790134,0,0,0.65790134,7.2090085,100.52208)">
      <g
         transform="translate(-2.6458334)"
         id="text4233"
         style="font-style:normal;font-weight:normal;font-size:20.25725365px;line-height:12.15435219px;font-family:sans-serif;letter-spacing:0px;word-spacing:0px;fill:#000000;fill-opacity:1;stroke:#000000;stroke-width:0.50643134px;stroke-linecap:butt;stroke-linejoin:miter;stroke-opacity:1"
         aria-label="OSCI.IO">
        <path
           inkscape:connector-curvature="0"
           id="path4260"
           style="font-style:normal;font-variant:normal;font-weight:900;font-stretch:normal;font-family:'Ostrich Sans';-inkscape-font-specification:'Ostrich Sans Heavy';fill:#000000;stroke:#000000;stroke-width:0.50643134px"
           d="m 6.8603356,294.2923 q -1.0736345,0 -1.7218666,-0.38488 -0.6482321,-0.38489 -0.9723481,-0.79004 -0.8508047,-1.09389 -0.8508047,-3.0791 v -6.42155 q 0,-1.98521 0.8508047,-3.0791 0.162058,-0.20257 0.3848878,-0.40515 0.243087,-0.20257 0.5672031,-0.36463 0.3443733,-0.18231 0.7697756,-0.2836 0.4254023,-0.12154 0.9723482,-0.12154 1.0938917,0 1.7218665,0.38489 0.6482322,0.38488 0.9723482,0.79003 0.8508047,1.09389 0.8508047,3.0791 v 6.42155 q 0,1.98521 -0.8508047,3.0791 -0.324116,0.40515 -0.9723482,0.79004 -0.6279748,0.38488 -1.7218665,0.38488 z m 0,-13.00515 q -0.2228298,0 -0.5064314,0.0405 -0.2633443,0.0405 -0.5266885,0.26335 -0.2633443,0.20257 -0.4456596,0.68874 -0.1620581,0.46592 -0.1620581,1.33698 v 6.42155 q 0,0.89132 0.1620581,1.37749 0.1823153,0.46592 0.4456596,0.68875 0.2633442,0.20257 0.5266885,0.24309 0.2836016,0.0405 0.5064314,0.0405 0.2025725,0 0.4861741,-0.0405 0.2836015,-0.0405 0.5469458,-0.24309 0.2633443,-0.22283 0.4254024,-0.68875 0.1823152,-0.48617 0.1823152,-1.37749 v -6.42155 q 0,-0.87106 -0.1823152,-1.33698 -0.1620581,-0.48617 -0.4254024,-0.68874 -0.2633443,-0.22283 -0.5469458,-0.26335 -0.2836016,-0.0405 -0.4861741,-0.0405 z" />
        <path
           inkscape:connector-curvature="0"
           id="path4262"
           style="font-style:normal;font-variant:normal;font-weight:900;font-stretch:normal;font-family:'Ostrich Sans';-inkscape-font-specification:'Ostrich Sans Heavy';fill:#000000;stroke:#000000;stroke-width:0.50643134px"
           d="m 15.070537,294.2923 q -1.782638,0 -2.694215,-1.15466 -0.871062,-1.07363 -0.871062,-3.0791 v -0.95209 h 1.904182 v 0.95209 q 0,1.31672 0.465917,1.88392 0.101286,0.1418 0.364631,0.30386 0.263344,0.1418 0.830547,0.1418 0.546946,0 0.871062,-0.22283 0.324116,-0.24308 0.486174,-0.5672 0.182315,-0.34437 0.22283,-0.72926 0.06077,-0.40515 0.06077,-0.70901 0,-0.52668 -0.162058,-0.89132 -0.162058,-0.36463 -0.425403,-0.60771 -0.263344,-0.26335 -0.58746,-0.42541 -0.324116,-0.18231 -0.648232,-0.32411 l -0.364631,-0.16206 q -0.324116,-0.1418 -0.830547,-0.38489 -0.486174,-0.26334 -0.972348,-0.72926 -1.215436,-1.17492 -1.215436,-2.99807 0,-0.95209 0.243088,-1.74213 0.263344,-0.79003 0.729261,-1.33697 0.486174,-0.56721 1.134406,-0.87107 0.668489,-0.32411 1.458522,-0.32411 1.093892,0 1.721867,0.38489 0.648232,0.38488 0.972348,0.79003 0.871062,1.11415 0.871062,3.09936 v 0.95209 h -1.924439 v -0.95209 q 0,-0.87106 -0.182316,-1.35724 -0.162058,-0.48617 -0.425402,-0.68874 -0.263344,-0.22283 -0.546946,-0.26335 -0.283601,-0.0405 -0.486174,-0.0405 -0.58746,0 -0.911576,0.2836 -0.324116,0.2836 -0.506432,0.68875 -0.162058,0.38488 -0.202572,0.79003 -0.04051,0.38489 -0.04051,0.58746 0,0.52669 0.162058,0.91157 0.162058,0.36464 0.425403,0.64824 0.263344,0.26334 0.58746,0.46591 0.344373,0.18232 0.709004,0.32412 l 0.324116,0.1418 q 0.283602,0.12154 0.769776,0.36463 0.506431,0.22283 0.992605,0.68875 1.25595,1.15466 1.25595,2.97781 0,1.72187 -0.850805,2.85628 -0.992605,1.2762 -2.714472,1.2762 z" />
        <path
           inkscape:connector-curvature="0"
           id="path4264"
           style="font-style:normal;font-variant:normal;font-weight:900;font-stretch:normal;font-family:'Ostrich Sans';-inkscape-font-specification:'Ostrich Sans Heavy';fill:#000000;stroke:#000000;stroke-width:0.50643134px"
           d="m 23.081966,294.31256 q -0.546946,0 -0.972348,-0.10129 -0.425403,-0.12154 -0.769776,-0.2836 -0.324116,-0.18231 -0.567203,-0.38488 -0.22283,-0.22283 -0.384888,-0.42541 -0.850805,-1.09389 -0.850805,-3.0791 v -6.40129 q 0,-1.98521 0.850805,-3.0791 0.324116,-0.40515 0.952091,-0.79004 0.648232,-0.38488 1.742124,-0.38488 1.093891,0 1.721866,0.38488 0.627975,0.38489 0.952091,0.79004 0.871062,1.11414 0.871062,3.0791 v 0.95209 h -1.924439 v -0.95209 q 0,-0.87106 -0.182315,-1.35724 -0.162058,-0.48617 -0.425403,-0.68874 -0.243087,-0.22283 -0.526688,-0.26335 -0.283602,-0.0405 -0.486174,-0.0405 -0.22283,0 -0.506432,0.0405 -0.263344,0.0405 -0.526688,0.26335 -0.263345,0.20257 -0.44566,0.68874 -0.162058,0.48618 -0.162058,1.35724 v 6.40129 q 0,1.31672 0.465917,1.90418 0.101286,0.1418 0.364631,0.30386 0.263344,0.16206 0.81029,0.16206 0.546946,0 0.790033,-0.16206 0.263344,-0.16206 0.384887,-0.30386 0.44566,-0.60772 0.44566,-1.90418 v -0.95209 h 1.924439 v 0.95209 q 0,1.96495 -0.871062,3.0791 -0.324116,0.40515 -0.952091,0.81029 -0.627975,0.38489 -1.721866,0.38489 z" />
        <path
           inkscape:connector-curvature="0"
           id="path4266"
           style="font-style:normal;font-variant:normal;font-weight:900;font-stretch:normal;font-family:'Ostrich Sans';-inkscape-font-specification:'Ostrich Sans Heavy';fill:#000000;stroke:#000000;stroke-width:0.50643134px"
           d="M 29.92227,294.31256 H 28.018088 V 279.38297 H 29.92227 Z" />
        <path
           inkscape:connector-curvature="0"
           id="path4268"
           style="font-style:normal;font-variant:normal;font-weight:900;font-stretch:normal;font-family:'Ostrich Sans';-inkscape-font-specification:'Ostrich Sans Heavy';fill:#000000;stroke:#000000;stroke-width:0.50643134px"
           d="m 33.816292,294.31256 h -1.904181 v -2.14727 h 1.904181 z" />
        <path
           inkscape:connector-curvature="0"
           id="path4270"
           style="font-style:normal;font-variant:normal;font-weight:900;font-stretch:normal;font-family:'Ostrich Sans';-inkscape-font-specification:'Ostrich Sans Heavy';fill:#000000;stroke:#000000;stroke-width:0.50643134px"
           d="m 37.756129,294.31256 h -1.904182 v -14.92959 h 1.904182 z" />
        <path
           inkscape:connector-curvature="0"
           id="path4272"
           style="font-style:normal;font-variant:normal;font-weight:900;font-stretch:normal;font-family:'Ostrich Sans';-inkscape-font-specification:'Ostrich Sans Heavy';fill:#000000;stroke:#000000;stroke-width:0.50643134px"
           d="m 42.86444,294.2923 q -1.073634,0 -1.721866,-0.38488 -0.648232,-0.38489 -0.972349,-0.79004 -0.850804,-1.09389 -0.850804,-3.0791 v -6.42155 q 0,-1.98521 0.850804,-3.0791 0.162058,-0.20257 0.384888,-0.40515 0.243087,-0.20257 0.567203,-0.36463 0.344374,-0.18231 0.769776,-0.2836 0.425402,-0.12154 0.972348,-0.12154 1.093892,0 1.721867,0.38489 0.648232,0.38488 0.972348,0.79003 0.850805,1.09389 0.850805,3.0791 v 6.42155 q 0,1.98521 -0.850805,3.0791 -0.324116,0.40515 -0.972348,0.79004 -0.627975,0.38488 -1.721867,0.38488 z m 0,-13.00515 q -0.22283,0 -0.506431,0.0405 -0.263344,0.0405 -0.526689,0.26335 -0.263344,0.20257 -0.445659,0.68874 -0.162058,0.46592 -0.162058,1.33698 v 6.42155 q 0,0.89132 0.162058,1.37749 0.182315,0.46592 0.445659,0.68875 0.263345,0.20257 0.526689,0.24309 0.283601,0.0405 0.506431,0.0405 0.202573,0 0.486174,-0.0405 0.283602,-0.0405 0.546946,-0.24309 0.263344,-0.22283 0.425402,-0.68875 0.182316,-0.48617 0.182316,-1.37749 v -6.42155 q 0,-0.87106 -0.182316,-1.33698 -0.162058,-0.48617 -0.425402,-0.68874 -0.263344,-0.22283 -0.546946,-0.26335 -0.283601,-0.0405 -0.486174,-0.0405 z" />
      </g>
      <g
         transform="translate(-2.6458334)"
         id="text4237"
         style="font-style:normal;font-weight:normal;font-size:20.25725365px;line-height:12.15435219px;font-family:sans-serif;letter-spacing:0px;word-spacing:0px;fill:#ffffff;fill-opacity:1;stroke:#aa8800;stroke-width:0.50599998;stroke-linecap:butt;stroke-linejoin:miter;stroke-miterlimit:4;stroke-dasharray:none;stroke-opacity:1;paint-order:stroke markers fill"
         aria-label="OSCI.io">
        <path
           inkscape:connector-curvature="0"
           id="path4275"
           style="font-style:normal;font-variant:normal;font-weight:900;font-stretch:normal;font-family:'Ostrich Sans';-inkscape-font-specification:'Ostrich Sans Heavy';fill:#ffffff;fill-opacity:1;stroke:#aa8800;stroke-width:0.50599998;stroke-miterlimit:4;stroke-dasharray:none;paint-order:stroke markers fill"
           d="m 6.7200191,293.87131 q -1.0736344,0 -1.7218666,-0.38488 -0.6482321,-0.38489 -0.9723481,-0.79004 -0.8508047,-1.09389 -0.8508047,-3.0791 v -6.42155 q 0,-1.98521 0.8508047,-3.0791 0.162058,-0.20257 0.3848878,-0.40515 0.243087,-0.20257 0.5672031,-0.36463 0.3443733,-0.18231 0.7697756,-0.2836 0.4254024,-0.12154 0.9723482,-0.12154 1.0938917,0 1.7218666,0.38489 0.6482321,0.38488 0.9723481,0.79003 0.8508042,1.09389 0.8508042,3.0791 v 6.42155 q 0,1.98521 -0.8508042,3.0791 -0.324116,0.40515 -0.9723481,0.79004 -0.6279749,0.38488 -1.7218666,0.38488 z m 0,-13.00515 q -0.2228298,0 -0.5064313,0.0405 -0.2633443,0.0405 -0.5266886,0.26335 -0.2633443,0.20257 -0.4456596,0.68874 -0.162058,0.46592 -0.162058,1.33698 v 6.42155 q 0,0.89132 0.162058,1.37749 0.1823153,0.46592 0.4456596,0.68875 0.2633443,0.20257 0.5266886,0.24309 0.2836015,0.0405 0.5064313,0.0405 0.2025725,0 0.4861741,-0.0405 0.2836015,-0.0405 0.5469458,-0.24309 0.2633443,-0.22283 0.4254024,-0.68875 0.1823152,-0.48617 0.1823152,-1.37749 v -6.42155 q 0,-0.87106 -0.1823152,-1.33698 -0.1620581,-0.48617 -0.4254024,-0.68874 -0.2633443,-0.22283 -0.5469458,-0.26335 -0.2836016,-0.0405 -0.4861741,-0.0405 z" />
        <path
           inkscape:connector-curvature="0"
           id="path4277"
           style="font-style:normal;font-variant:normal;font-weight:900;font-stretch:normal;font-family:'Ostrich Sans';-inkscape-font-specification:'Ostrich Sans Heavy';fill:#ffffff;fill-opacity:1;stroke:#aa8800;stroke-width:0.50599998;stroke-miterlimit:4;stroke-dasharray:none;paint-order:stroke markers fill"
           d="m 14.930221,293.87131 q -1.782639,0 -2.694215,-1.15466 -0.871062,-1.07363 -0.871062,-3.0791 v -0.95209 h 1.904182 v 0.95209 q 0,1.31672 0.465917,1.88392 0.101286,0.1418 0.36463,0.30386 0.263345,0.1418 0.830548,0.1418 0.546945,0 0.871062,-0.22283 0.324116,-0.24308 0.486174,-0.5672 0.182315,-0.34437 0.222829,-0.72926 0.06077,-0.40515 0.06077,-0.70901 0,-0.52668 -0.162058,-0.89132 -0.162058,-0.36463 -0.425402,-0.60771 -0.263344,-0.26335 -0.587461,-0.42541 -0.324116,-0.18231 -0.648232,-0.32411 l -0.36463,-0.16206 q -0.324116,-0.1418 -0.830548,-0.38489 -0.486174,-0.26334 -0.972348,-0.72926 -1.215435,-1.17492 -1.215435,-2.99807 0,-0.95209 0.243087,-1.74213 0.263344,-0.79003 0.729261,-1.33697 0.486174,-0.56721 1.134406,-0.87107 0.66849,-0.32411 1.458523,-0.32411 1.093891,0 1.721866,0.38489 0.648232,0.38488 0.972348,0.79003 0.871062,1.11415 0.871062,3.09936 v 0.95209 H 16.571058 V 283.216 q 0,-0.87106 -0.182315,-1.35724 -0.162058,-0.48617 -0.425402,-0.68874 -0.263345,-0.22283 -0.546946,-0.26335 -0.283602,-0.0405 -0.486174,-0.0405 -0.587461,0 -0.911577,0.2836 -0.324116,0.2836 -0.506431,0.68875 -0.162058,0.38488 -0.202573,0.79003 -0.04051,0.38489 -0.04051,0.58746 0,0.52669 0.162058,0.91157 0.162058,0.36464 0.425402,0.64824 0.263344,0.26334 0.587461,0.46591 0.344373,0.18232 0.709003,0.32412 l 0.324116,0.1418 q 0.283602,0.12154 0.769776,0.36463 0.506431,0.22283 0.992606,0.68875 1.255949,1.15466 1.255949,2.97781 0,1.72187 -0.850804,2.85628 -0.992606,1.2762 -2.714472,1.2762 z" />
        <path
           inkscape:connector-curvature="0"
           id="path4279"
           style="font-style:normal;font-variant:normal;font-weight:900;font-stretch:normal;font-family:'Ostrich Sans';-inkscape-font-specification:'Ostrich Sans Heavy';fill:#ffffff;fill-opacity:1;stroke:#aa8800;stroke-width:0.50599998;stroke-miterlimit:4;stroke-dasharray:none;paint-order:stroke markers fill"
           d="m 22.941649,293.89157 q -0.546946,0 -0.972348,-0.10129 -0.425402,-0.12154 -0.769776,-0.2836 -0.324116,-0.18231 -0.567203,-0.38488 -0.22283,-0.22283 -0.384888,-0.42541 -0.850804,-1.09389 -0.850804,-3.0791 V 283.216 q 0,-1.98521 0.850804,-3.0791 0.324117,-0.40515 0.952091,-0.79004 0.648233,-0.38488 1.742124,-0.38488 1.093892,0 1.721867,0.38488 0.627975,0.38489 0.952091,0.79004 0.871062,1.11414 0.871062,3.0791 v 0.95209 h -1.92444 V 283.216 q 0,-0.87106 -0.182315,-1.35724 -0.162058,-0.48617 -0.425402,-0.68874 -0.243087,-0.22283 -0.526689,-0.26335 -0.283601,-0.0405 -0.486174,-0.0405 -0.22283,0 -0.506431,0.0405 -0.263344,0.0405 -0.526689,0.26335 -0.263344,0.20257 -0.445659,0.68874 -0.162058,0.48618 -0.162058,1.35724 v 6.40129 q 0,1.31672 0.465916,1.90418 0.101287,0.1418 0.364631,0.30386 0.263344,0.16206 0.81029,0.16206 0.546946,0 0.790033,-0.16206 0.263344,-0.16206 0.384888,-0.30386 0.445659,-0.60772 0.445659,-1.90418 v -0.95209 h 1.92444 v 0.95209 q 0,1.96495 -0.871062,3.0791 -0.324116,0.40515 -0.952091,0.81029 -0.627975,0.38489 -1.721867,0.38489 z" />
        <path
           inkscape:connector-curvature="0"
           id="path4281"
           style="font-style:normal;font-variant:normal;font-weight:900;font-stretch:normal;font-family:'Ostrich Sans';-inkscape-font-specification:'Ostrich Sans Heavy';fill:#ffffff;fill-opacity:1;stroke:#aa8800;stroke-width:0.50599998;stroke-miterlimit:4;stroke-dasharray:none;paint-order:stroke markers fill"
           d="m 29.781954,293.89157 h -1.904182 v -14.92959 h 1.904182 z" />
        <path
           inkscape:connector-curvature="0"
           id="path4283"
           style="font-style:normal;font-variant:normal;font-weight:900;font-stretch:normal;font-family:'Ostrich Sans';-inkscape-font-specification:'Ostrich Sans Heavy';fill:#ffffff;fill-opacity:1;stroke:#aa8800;stroke-width:0.50599998;stroke-miterlimit:4;stroke-dasharray:none;paint-order:stroke markers fill"
           d="m 33.675976,293.89157 h -1.904182 v -2.14727 h 1.904182 z" />
        <path
           inkscape:connector-curvature="0"
           id="path4285"
           style="fill:#b3b3b3;stroke:#483e37"
           d="M 37.615812,293.89157 H 35.71163 v -14.92959 h 1.904182 z" />
        <path
           inkscape:connector-curvature="0"
           id="path4287"
           style="fill:#b3b3b3;stroke:#483e37"
           d="m 42.724124,293.87131 q -1.073635,0 -1.721867,-0.38488 -0.648232,-0.38489 -0.972348,-0.79004 -0.850805,-1.09389 -0.850805,-3.0791 v -6.42155 q 0,-1.98521 0.850805,-3.0791 0.162058,-0.20257 0.384888,-0.40515 0.243087,-0.20257 0.567203,-0.36463 0.344373,-0.18231 0.769776,-0.2836 0.425402,-0.12154 0.972348,-0.12154 1.093891,0 1.721866,0.38489 0.648232,0.38488 0.972348,0.79003 0.850805,1.09389 0.850805,3.0791 v 6.42155 q 0,1.98521 -0.850805,3.0791 -0.324116,0.40515 -0.972348,0.79004 -0.627975,0.38488 -1.721866,0.38488 z m 0,-13.00515 q -0.22283,0 -0.506432,0.0405 -0.263344,0.0405 -0.526688,0.26335 -0.263345,0.20257 -0.44566,0.68874 -0.162058,0.46592 -0.162058,1.33698 v 6.42155 q 0,0.89132 0.162058,1.37749 0.182315,0.46592 0.44566,0.68875 0.263344,0.20257 0.526688,0.24309 0.283602,0.0405 0.506432,0.0405 0.202572,0 0.486174,-0.0405 0.283601,-0.0405 0.546946,-0.24309 0.263344,-0.22283 0.425402,-0.68875 0.182315,-0.48617 0.182315,-1.37749 v -6.42155 q 0,-0.87106 -0.182315,-1.33698 -0.162058,-0.48617 -0.425402,-0.68874 -0.263345,-0.22283 -0.546946,-0.26335 -0.283602,-0.0405 -0.486174,-0.0405 z" />
      </g>
    </g>
  </g>
</svg>
